<?xml version="1.0" encoding="UTF-8"?>
<!DOCTYPE svg PUBLIC "-//W3C//DTD SVG 1.1//EN" "http://www.w3.org/Graphics/SVG/1.1/DTD/svg11.dtd">
<svg xmlns="http://www.w3.org/2000/svg" version="1.1" width="279px" height="289px" style="shape-rendering:geometricPrecision; text-rendering:geometricPrecision; image-rendering:optimizeQuality; fill-rule:evenodd; clip-rule:evenodd" xmlns:xlink="http://www.w3.org/1999/xlink">
<g><path style="opacity:0.957" fill="#268d5a" d="M 91.5,20.5 C 81.8237,16.2229 71.657,13.2229 61,11.5C 60.1667,11.8333 59.3333,12.1667 58.5,12.5C 60.3326,25.1526 64.6659,36.8193 71.5,47.5C 62.6934,36.8612 58.0267,24.5279 57.5,10.5C 69.9652,10.4443 81.2985,13.7776 91.5,20.5 Z"/></g>
<g><path style="opacity:1" fill="#32b673" d="M 91.5,20.5 C 93.153,20.6596 94.4863,21.3263 95.5,22.5C 99.7581,27.4248 104.425,32.0915 109.5,36.5C 115.269,42.7051 118.936,50.0385 120.5,58.5C 120.998,63.1522 121.331,67.8189 121.5,72.5C 112.931,71.9861 104.597,70.3195 96.5,67.5C 89.9735,65.0757 84.3068,61.4091 79.5,56.5C 77.5698,52.8998 74.9031,49.8998 71.5,47.5C 64.6659,36.8193 60.3326,25.1526 58.5,12.5C 59.3333,12.1667 60.1667,11.8333 61,11.5C 71.657,13.2229 81.8237,16.2229 91.5,20.5 Z"/></g>
<g><path style="opacity:1" fill="#33b672" d="M 204.5,12.5 C 208.5,12.5 212.5,12.5 216.5,12.5C 214.718,25.1881 210.384,36.8548 203.5,47.5C 202.243,50.4274 200.243,52.7607 197.5,54.5C 184.558,65.4648 169.558,71.7981 152.5,73.5C 152.958,55.391 159.958,39.891 173.5,27C 176.222,24.6422 179.222,22.8089 182.5,21.5C 189.76,18.0863 197.093,15.0863 204.5,12.5 Z"/></g>
<g><path style="opacity:1" fill="#288f5b" d="M 203.5,47.5 C 210.384,36.8548 214.718,25.1881 216.5,12.5C 212.5,12.5 208.5,12.5 204.5,12.5C 208.591,11.1045 212.924,10.4379 217.5,10.5C 217.14,24.5944 212.474,36.9277 203.5,47.5 Z"/></g>
<g><path style="opacity:1" fill="#268e5a" d="M 204.5,12.5 C 197.093,15.0863 189.76,18.0863 182.5,21.5C 188.947,16.5672 196.28,13.5672 204.5,12.5 Z"/></g>
<g><path style="opacity:1" fill="#218856" d="M 95.5,22.5 C 101.188,26.1879 105.855,30.8546 109.5,36.5C 104.425,32.0915 99.7581,27.4248 95.5,22.5 Z"/></g>
<g><path style="opacity:0.51" fill="#248658" d="M 71.5,47.5 C 74.9031,49.8998 77.5698,52.8998 79.5,56.5C 76.0969,54.1002 73.4302,51.1002 71.5,47.5 Z"/></g>
<g><path style="opacity:0.847" fill="#228a58" d="M 197.5,54.5 C 185.058,67.23 170.058,73.5633 152.5,73.5C 169.558,71.7981 184.558,65.4648 197.5,54.5 Z"/></g>
<g><path style="opacity:1" fill="#258958" d="M 120.5,58.5 C 122.23,63.5695 123.23,68.9029 123.5,74.5C 113.857,74.1737 104.857,71.8403 96.5,67.5C 104.597,70.3195 112.931,71.9861 121.5,72.5C 121.331,67.8189 120.998,63.1522 120.5,58.5 Z"/></g>
<g><path style="opacity:1" fill="#258e56" d="M 49.5,86.5 C 106.665,85.3348 163.999,85.1681 221.5,86C 225.86,86.838 229.86,88.338 233.5,90.5C 228.852,89.3381 224.186,88.1714 219.5,87C 162.834,86.5 106.168,86.3333 49.5,86.5 Z"/></g>
<g><path style="opacity:1" fill="#34b774" d="M 47.5,86.5 C 48.1667,86.5 48.8333,86.5 49.5,86.5C 106.168,86.3333 162.834,86.5 219.5,87C 224.186,88.1714 228.852,89.3381 233.5,90.5C 249.464,97.6555 258.964,109.989 262,127.5C 262.667,163.167 262.667,198.833 262,234.5C 261.802,236.382 261.302,238.048 260.5,239.5C 258.452,244.107 256.285,248.773 254,253.5C 252.829,254.893 251.329,255.727 249.5,256C 250.451,256.718 250.617,257.551 250,258.5C 249,257.833 248,257.167 247,256.5C 246.264,260.07 245.097,263.404 243.5,266.5C 242.738,268.262 241.404,269.262 239.5,269.5C 234.044,271.862 228.711,274.196 223.5,276.5C 223.167,276.5 222.833,276.5 222.5,276.5C 165.499,276.667 108.499,276.5 51.5,276C 47.506,275.055 43.506,274.222 39.5,273.5C 33.1148,271.312 27.7815,267.645 23.5,262.5C 23.2488,260.83 22.5822,259.33 21.5,258C 21.8333,257.667 22.1667,257.333 22.5,257C 18.9421,255.108 16.4421,252.275 15,248.5C 13.1635,243.989 11.8302,239.323 11,234.5C 10.3333,198.833 10.3333,163.167 11,127.5C 12.6772,120.968 14.8438,114.634 17.5,108.5C 19.7774,103.223 23.4441,99.2227 28.5,96.5C 34.8127,92.8467 41.146,89.5133 47.5,86.5 Z"/></g>
<g><path style="opacity:0.894" fill="#258b59" d="M 47.5,86.5 C 41.146,89.5133 34.8127,92.8467 28.5,96.5C 33.7812,91.3573 40.1145,88.024 47.5,86.5 Z"/></g>
<g><path style="opacity:0.964" fill="#219058" d="M 17.5,108.5 C 14.8438,114.634 12.6772,120.968 11,127.5C 10.3333,163.167 10.3333,198.833 11,234.5C 11.8302,239.323 13.1635,243.989 15,248.5C 16.4421,252.275 18.9421,255.108 22.5,257C 22.1667,257.333 21.8333,257.667 21.5,258C 22.5822,259.33 23.2488,260.83 23.5,262.5C 16.139,255.449 11.639,246.782 10,236.5C 9.33333,199.833 9.33333,163.167 10,126.5C 11.1788,119.826 13.6788,113.826 17.5,108.5 Z"/></g>
<g><path style="opacity:1" fill="#222d25" d="M 196.5,140.5 C 197.263,141.268 198.263,141.768 199.5,142C 194.167,142.333 188.833,142.667 183.5,143C 188.161,144.443 190.494,147.277 190.5,151.5C 186.492,145.471 181.492,144.304 175.5,148C 178.167,151 180.833,154 183.5,157C 182.833,157.333 182.167,157.667 181.5,158C 187.732,161.988 188.065,166.155 182.5,170.5C 183.545,167.886 184.045,165.22 184,162.5C 179,158.167 174,153.833 169,149.5C 167.872,144.288 170.039,141.788 175.5,142C 182.493,141.334 189.493,140.834 196.5,140.5 Z"/></g>
<g><path style="opacity:1" fill="#56c18b" d="M 214.5,139.5 C 215.583,139.539 216.583,139.873 217.5,140.5C 218.666,155.822 218.833,171.156 218,186.5C 217.617,187.056 217.117,187.389 216.5,187.5C 217.634,172.545 217.801,157.545 217,142.5C 215.955,141.627 215.122,140.627 214.5,139.5 Z"/></g>
<g><path style="opacity:1" fill="#112819" d="M 88.5,176.5 C 80.2383,174.283 76.4049,177.283 77,185.5C 78.8993,190.298 81.066,194.965 83.5,199.5C 78.1442,193.936 75.6442,187.269 76,179.5C 78.4353,174.776 82.2686,173.276 87.5,175C 88.056,175.383 88.3893,175.883 88.5,176.5 Z"/></g>
<g><path style="opacity:1" fill="#2b2c2b" d="M 214.5,139.5 C 215.122,140.627 215.955,141.627 217,142.5C 217.801,157.545 217.634,172.545 216.5,187.5C 213.369,188.092 211.036,187.092 209.5,184.5C 206.573,181.232 203.573,177.899 200.5,174.5C 197.682,175.929 196.349,178.262 196.5,181.5C 191.379,194.208 183.046,204.375 171.5,212C 155.719,221.723 138.719,225.223 120.5,222.5C 111.382,219.61 102.716,215.61 94.5,210.5C 89.8547,207.855 86.188,204.188 83.5,199.5C 81.066,194.965 78.8993,190.298 77,185.5C 76.4049,177.283 80.2383,174.283 88.5,176.5C 90.942,178.121 92.2753,180.454 92.5,183.5C 92.3379,185.527 92.5045,187.527 93,189.5C 93.3333,189.167 93.6667,188.833 94,188.5C 95.7112,191.255 97.8779,193.589 100.5,195.5C 99.3446,196.95 97.8446,197.95 96,198.5C 94.1476,200.23 94.3143,201.396 96.5,202C 96.0426,202.414 95.7093,202.914 95.5,203.5C 96.6283,204.262 97.7949,204.929 99,205.5C 99.6449,204.354 100.478,203.354 101.5,202.5C 100.189,201.742 99.6886,200.742 100,199.5C 101.699,198.594 103.533,198.261 105.5,198.5C 106.02,202.385 108.02,203.718 111.5,202.5C 118.034,204.474 124.701,205.807 131.5,206.5C 133.333,206.415 134.666,205.748 135.5,204.5C 138.373,204.198 141.039,203.531 143.5,202.5C 161.266,197.742 174.266,187.075 182.5,170.5C 188.065,166.155 187.732,161.988 181.5,158C 182.167,157.667 182.833,157.333 183.5,157C 180.833,154 178.167,151 175.5,148C 181.492,144.304 186.492,145.471 190.5,151.5C 190.494,147.277 188.161,144.443 183.5,143C 188.833,142.667 194.167,142.333 199.5,142C 198.263,141.768 197.263,141.268 196.5,140.5C 202.31,139.51 208.31,139.177 214.5,139.5 Z"/></g>
<g><path style="opacity:1" fill="#163320" d="M 209.5,184.5 C 205.897,182.237 202.564,179.57 199.5,176.5C 198.675,178.36 197.675,180.026 196.5,181.5C 196.349,178.262 197.682,175.929 200.5,174.5C 203.573,177.899 206.573,181.232 209.5,184.5 Z"/></g>
<g><path style="opacity:1" fill="#202c23" d="M 92.5,183.5 C 95.4938,189.827 100.16,194.494 106.5,197.5C 109.546,200.357 113.213,202.19 117.5,203C 123.435,204.239 129.435,204.739 135.5,204.5C 134.666,205.748 133.333,206.415 131.5,206.5C 124.701,205.807 118.034,204.474 111.5,202.5C 108.02,203.718 106.02,202.385 105.5,198.5C 103.533,198.261 101.699,198.594 100,199.5C 99.6886,200.742 100.189,201.742 101.5,202.5C 100.478,203.354 99.6449,204.354 99,205.5C 97.7949,204.929 96.6283,204.262 95.5,203.5C 95.7093,202.914 96.0426,202.414 96.5,202C 94.3143,201.396 94.1476,200.23 96,198.5C 97.8446,197.95 99.3446,196.95 100.5,195.5C 97.8779,193.589 95.7112,191.255 94,188.5C 93.6667,188.833 93.3333,189.167 93,189.5C 92.5045,187.527 92.3379,185.527 92.5,183.5 Z"/></g>
<g><path style="opacity:1" fill="#4fb784" d="M 106.5,197.5 C 109.777,198.423 113.11,199.256 116.5,200C 117.167,200.667 117.833,201.333 118.5,202C 126.827,202.5 135.16,202.666 143.5,202.5C 141.039,203.531 138.373,204.198 135.5,204.5C 129.435,204.739 123.435,204.239 117.5,203C 113.213,202.19 109.546,200.357 106.5,197.5 Z"/></g>
<g><path style="opacity:1" fill="#102917" d="M 94.5,210.5 C 102.716,215.61 111.382,219.61 120.5,222.5C 110.51,221.169 101.843,217.169 94.5,210.5 Z"/></g>
<g><path style="opacity:1" fill="#289c63" d="M 260.5,239.5 C 258.407,250.892 252.741,259.892 243.5,266.5C 245.097,263.404 246.264,260.07 247,256.5C 248,257.167 249,257.833 250,258.5C 250.617,257.551 250.451,256.718 249.5,256C 251.329,255.727 252.829,254.893 254,253.5C 256.285,248.773 258.452,244.107 260.5,239.5 Z"/></g>
<g><path style="opacity:0.38" fill="#1d8251" d="M 239.5,269.5 C 234.93,273.365 229.596,275.698 223.5,276.5C 228.711,274.196 234.044,271.862 239.5,269.5 Z"/></g>
<g><path style="opacity:0.986" fill="#1d8b4c" d="M 39.5,273.5 C 43.506,274.222 47.506,275.055 51.5,276C 108.499,276.5 165.499,276.667 222.5,276.5C 165.001,277.665 107.335,277.832 49.5,277C 45.8909,276.299 42.5575,275.132 39.5,273.5 Z"/></g>
</svg>
